# xmcd CD database file
#
# Track frame offsets:
#	150
#	19977
#	37887
#	59604
#	82245
#	103959
#	127080
#	147138
#	175875
#	208518
#	237500
#	255654
#	267737
#	284591
#
# Disc length: 4116 seconds
#
# Revision: 0
# Processed by: cddbd v1.5.2PL0 Copyright (c) Steve Scherf et al.
# Submitted via: CDex 1.70beta2
#
DISCID=e110120e
DTITLE=Various Artist - collection de musique - numero 1
DYEAR=1900
DGENRE=Jazz
TTITLE0=DELICATESSEN - Angel Eyes
TTITLE1=JAZZ - [re:jazz] Theme
TTITLE2=Juju Orchestra - What is Hip?
TTITLE3=Echosystem - Por Tudo E Por Nada
TTITLE4=JAZZ - Finally
TTITLE5=Diane Hubka - Haven't We Met?
TTITLE6=JAZZ - Style
TTITLE7=Meitz - My Love
TTITLE8=Jukka Eskola - 1974
TTITLE9=TheJuju Orchestra - Nao Posso Demorar
TTITLE10=Matthias Vogt Trio - Pilot
TTITLE11=DELICATESSEN - Do It Again
TTITLE12=Marcia Lopes - Don't Let Me Be Lonely Tonight
TTITLE13=Matthias Vogt Trio - With A Smile
EXTD=
EXTT0=
EXTT1=
EXTT2=
EXTT3=
EXTT4=
EXTT5=
EXTT6=
EXTT7=
EXTT8=
EXTT9=
EXTT10=
EXTT11=
EXTT12=
EXTT13=
PLAYORDER=
